<?xml version="1.0" encoding="UTF-8"?><svg id="uuid-2f70a75d-1bcd-4511-aea6-77bb6e01e552" xmlns="http://www.w3.org/2000/svg" viewBox="0 0 400 108.48"><path d="M41.49,63.73v14.66h0v30.09s-41.49,0-41.49,0V42.41s20.17,0,20.17,0c11.78,0,21.32,9.55,21.32,21.32Z" fill="#fff"/><path d="M69.21,42.41h20.2c-1.44,21.94-17.02,35.98-41.52,35.98v-14.66c0-11.78,9.55-21.32,21.32-21.32Z" fill="#fff"/><path d="M20.17,36.01H0S0,0,0,0h41.49s0,14.69,0,14.69c0,11.78-9.55,21.32-21.32,21.32Z" fill="#fff"/><path d="M47.89,14.69V0c24.68.06,40.24,13.95,41.54,36.01h-20.22c-11.78,0-21.32-9.55-21.32-21.32Z" fill="#fff"/><path d="M96.65,75.42c0-18.82,13.25-33.06,30.83-33.06,8.42,0,15.48,3.34,20.55,8.92v-7.43h16.1v42.22c0,3.34,1.86,5.32,5.32,5.32h1.24v15.6h-4.58c-8.67,0-14.24-3.1-16.72-9.16-5.08,6.56-12.75,10.65-21.92,10.65-17.58,0-30.83-14.24-30.83-33.06ZM148.03,75.42c0-9.91-7.43-17.46-17.46-17.46s-17.33,7.55-17.33,17.46,7.43,17.46,17.33,17.46,17.46-7.55,17.46-17.46Z" fill="#fff"/><path d="M178.12,75.42c0-18.82,14.61-33.06,33.93-33.06,16.84,0,29.96,10.77,32.44,25.75h-17.09c-2.1-6.07-8.05-10.15-15.35-10.15-9.91,0-17.34,7.55-17.34,17.46s7.43,17.46,17.34,17.46c7.31,0,13.25-4.09,15.35-10.15h17.09c-2.48,14.98-15.6,25.75-32.44,25.75-19.32,0-33.93-14.24-33.93-33.06Z" fill="#fff"/><path d="M253.27,75.42c0-18.82,14.61-33.06,33.93-33.06,16.84,0,29.96,10.77,32.44,25.75h-17.09c-2.1-6.07-8.05-10.15-15.35-10.15-9.91,0-17.34,7.55-17.34,17.46s7.43,17.46,17.34,17.46c7.31,0,13.25-4.09,15.35-10.15h17.09c-2.48,14.98-15.6,25.75-32.44,25.75-19.32,0-33.93-14.24-33.93-33.06Z" fill="#fff"/><path d="M332.52,17.84h16.1v33.43c4.95-5.82,11.89-8.92,20.06-8.92,14.86,0,24.64,9.66,24.64,24.52v19.19c0,3.34,1.98,5.32,5.32,5.32h1.36v15.6h-4.58c-12.01,0-18.2-5.94-18.2-17.46v-17.46c0-8.54-5.45-14.12-13.74-14.12-8.92,0-14.86,5.7-14.86,14.36v34.67h-16.1V17.84Z" fill="#fff"/></svg>