<?xml version="1.0" encoding="UTF-8"?><svg xmlns="http://www.w3.org/2000/svg" xmlns:xlink="http://www.w3.org/1999/xlink" height="55.0" preserveAspectRatio="xMidYMid meet" version="1.0" viewBox="-1.3 -0.0 501.4 55.0" width="501.4" zoomAndPan="magnify"><g><g><g><path d="M55.9,2.37c147.92,.83,295.85,4.57,443.98,.67,.09,2.39,.18-.41,.06,2.35-86.84,0-211.94,1.65-328.11,1.65-26.27,0-58.53-1.61-84.79-1.13-20.46,.37-34.83-3.43-54.9,.52-4.68,.92-29.59,3.1-29.59,3.1,0,0-3.89,.96-2.05-3.43,16.02-.24,31.82-3.86,55.41-3.73Z" fill="#deb27e"/></g><g><path d="M17.74,5.24c1.61,16.81,4.62,33.48,8.98,49.79,3.25-5.84,6.49-11.69,9.74-17.53,5.43,5,10.71,10.17,15.8,15.51-.59-17.57-1.33-35.14-2.2-52.71-10.76,1.11-21.49,2.6-32.32,4.93Z" fill="#ea9daa"/></g><g><path d="M18.56,8.72c10.52-.98,21.04-1.97,31.56-2.95l.64-5.31c-4.24-.37-8.5,.33-12.7,1.03-6.93,1.15-13.86,2.3-20.79,3.45,.31,1.12,.63,2.23,1.29,3.78Z" fill="#e28899"/></g><g><path d="M80.37,3.12c2.1,16.23,4.2,32.47,6.29,48.7,2.2-3.68,4.41-7.35,6.61-11.03,6.56,3.2,12.49,7.67,17.38,13.09,.55-17.35,.87-34.71,.95-52.07-10.61-1.16-21.35-1.09-31.23,1.3Z" fill="#c3b0cf"/></g><g><path d="M146.25,2.74c1.88,16.07,3.02,32.23,3.41,48.4,3.99-4.97,7.99-9.93,11.98-14.9,4.71,4.63,9.42,9.26,14.13,13.89,1.22-15.7,2.44-31.39,3.67-47.09-4.09-1.09-8.29-1.78-12.51-2.05-7.06-.45-14.2,.28-20.68,1.75Z" fill="#a0ae3a"/></g><g><path d="M146.15,9.03c11.12-.4,22.26-.19,33.35,.65,.12-2.71,.25-5.43,.37-8.14-11.04-.06-22.07-.13-33.11-.19-.5,2.53-.74,5.11-.61,7.68Z" fill="#82903b"/></g><g><path d="M216.03,6.29c.09,15.3,1.43,30.59,4.01,45.69,3.73-5.14,7.21-10.44,10.43-15.89,5.42,5.91,10.31,12.26,14.61,18.95,1.26-4.56,1.35-9.32,1.44-14.04,.21-11.59,.42-23.17,.62-34.76,.01-.59,0-1.23-.34-1.73-.66-.95-2.13-.87-3.32-.69-9.3,1.37-18.8,1.46-27.45,2.47Z" fill="#f6cc76"/></g><g><path d="M280.06,4.5c-.36,15.27-.2,30.56,.48,45.82l11.92-16.89c3.05,5.33,6.62,10.38,10.63,15.03,1.87-14,3.73-27.99,5.6-41.99,.05-.4,.09-.87-.18-1.17-.24-.26-.62-.31-.97-.34-5.95-.51-11.9-1.02-17.84-1.53-3.15-.27-6.38-.54-9.63,1.06Z" fill="#e79caa"/></g><g><path d="M323.4,3.85c1.26,14.99,1.95,30.03,2.06,45.07,3.35-3.2,6.4-6.69,9.1-10.4,5.23,3.48,10.47,6.95,15.7,10.43,1.81-15.06,3.12-30.17,3.94-45.31-2.66,.13-5.28,.64-7.94,.74-7.28,.25-14.72-2.64-22.85-.52Z" fill="#a0ae3c"/></g><g><path d="M378.32,5.08c-.37,14.01-.39,28.03-.08,42.04,3.23-4.82,7.2-9.19,11.72-12.92,4.68,4.19,9.36,8.37,14.04,12.56,1.54-9.51,2.7-19.08,3.47-28.69,.34-4.21,.6-8.46,.07-12.66-.07-.53-.18-1.12-.62-1.45-.34-.26-.81-.3-1.24-.33-3.6-.25-7.19-.5-10.79-.75-5.89-.41-11.94-.81-17.6,.83,.37,.43,.74,.87,1.02,1.37Z" fill="#c2afcd"/></g><g><path d="M430.88,5.65c-.6,14.84-.02,29.72,1.73,44.47,3.29-5.23,7.18-10.09,11.56-14.46,3.26,6.13,7.98,11.47,13.66,15.48,3.77-14.92,5.24-30.42,4.34-45.79-10.28-1.62-20.76-2.02-31.28,.3Z" fill="#f5cc76"/></g><g><path d="M462.41,9.74c-10.84-1.13-21.81-1.02-32.63,.33-.2-2.68-.4-5.36-.61-8.04,11.64,.36,23.28,.47,34.92,.31-.82,2.46-.98,5.14-1.69,7.39Z" fill="#d8b667"/></g><g><path d="M246.08,9.57c-10.68-.45-21.41-.14-32.01,.92-.56-2.51-1.13-5.02-1.69-7.53,12.01-.38,24.03-.75,36.04-1.13-.94,2.04-1.54,4.17-2.34,7.73Z" fill="#d8b667"/></g><g><path d="M279.33,7.44l17.34,.31c3.81,.07,7.66,.14,11.36,1.07-.16-1.51,.1-3.06,.76-4.42-9.34-1.65-18.97-3.2-28.24-1.22-.28,.06-.58,.13-.77,.35-.18,.21-.22,.5-.25,.78-.11,1.18-.08,2.37-.2,3.13Z" fill="#e28899"/></g><g><path d="M328.93,10.81c8.68-.94,17.46-.93,26.14,.04-.54-2.73-.69-5.54-.43-8.31-9.89,1.07-19.92,.86-29.76-.61-.05,2.95,.36,5.9,4.06,8.88Z" fill="#82903b"/></g><g><path d="M111.48,7.46c-10.42,.17-20.83,.75-31.2,1.74-.65-2.31-1.31-4.63-1.96-6.94,11.33-1,22.69-1.75,34.06-2.26-.62,2.51-.4,5.21-.9,7.46Z" fill="#a983ad"/></g><g><path d="M405.97,10.31c-9.13-1.25-18.45-1.19-27.56,.18-.04-2.43-.37-4.86-1-7.22,9.55-.1,19.1-.02,28.65,.25,.51,.01,1.07,.06,1.4,.44,.32,.37,.29,.92,.24,1.41-.18,1.75-.36,3.49-1.74,4.93Z" fill="#a983ad"/></g></g></g></svg>