<?xml version="1.0" encoding="utf-8"?>
<!-- Generator: Adobe Illustrator 28.0.0, SVG Export Plug-In . SVG Version: 6.00 Build 0)  -->
<svg version="1.1" xmlns="http://www.w3.org/2000/svg" xmlns:xlink="http://www.w3.org/1999/xlink" x="0px" y="0px"
	 viewBox="0 0 501.4 55" style="enable-background:new 0 0 501.4 55;" xml:space="preserve">
<style type="text/css">
	.st0{fill:#1d0a1b;}
	.st1{fill:#6e3f6a;}
	.st2{fill:#E28899;}
	.st3{fill:#40b8b3;}
	.st4{fill:#A0AE3A;}
	.st5{fill:#82903B;}
	.st6{fill:#eb844c;}
	.st7{fill:#6e3f6a;}
	.st8{fill:#A0AE3C;}
	.st9{fill:#40b8b3;}
	.st10{fill:#eb844c;}
	.st11{fill:#D8B667;}
	.st12{fill:#3b8b87;}
</style>
<g id="Layer_2">
	<g>
		<polygon class="st0" points="57.2,2.4 57.2,2.4 57.2,2.4 		"/>
		<path class="st0" d="M444.3,2.4c-64.5,0.4-129,1.3-193.5,1.9c-64.5-0.6-129-1.5-193.5-1.9C33.6,2.2,16,5.9,0,6.1
			c0,1.8,0,2.5,0,2.5s28.8-1.2,33.4-2.1c20.1-4,34.4-0.1,54.9-0.5C114.6,5.4,146.9,7,173.1,7c25.6,0,51.7-0.1,77.6-0.2
			c26,0.1,52,0.2,77.6,0.2c26.3,0,58.5-1.6,84.8-1.1c20.5,0.4,34.8-3.4,54.9,0.5c4.7,0.9,33.4,2.1,33.4,2.1s0-0.7,0-2.5
			C485.5,5.9,467.9,2.2,444.3,2.4z"/>
		<polygon class="st0" points="444.3,2.4 444.3,2.4 444.3,2.4 		"/>
	</g>
</g>
<g id="Layer_1">
	<g>
		<g>
			<path class="st1" d="M19,5.2C20.6,22,23.7,38.7,28,55c3.2-5.8,6.5-11.7,9.7-17.5c5.4,5,10.7,10.2,15.8,15.5
				C53,35.4,52.2,17.9,51.4,0.3C40.6,1.4,29.9,2.9,19,5.2L19,5.2z"/>
		</g>
		<g>
			<path class="st2" d="M19.9,8.7c10.5-1,21-2,31.6-2.9l0.6-5.3c-4.2-0.4-8.5,0.3-12.7,1c-6.9,1.1-13.9,2.3-20.8,3.5
				C18.9,6.1,19.2,7.2,19.9,8.7z"/>
		</g>
		<g>
			<path class="st3" d="M81.7,3.1c2.1,16.2,4.2,32.5,6.3,48.7c2.2-3.7,4.4-7.3,6.6-11c6.6,3.2,12.5,7.7,17.4,13.1
				c0.6-17.4,0.9-34.7,0.9-52.1C102.3,0.7,91.6,0.7,81.7,3.1L81.7,3.1z"/>
		</g>
		<g>
			<path class="st4" d="M147.6,2.7c1.9,16.1,3,32.2,3.4,48.4c4-5,8-9.9,12-14.9c4.7,4.6,9.4,9.3,14.1,13.9
				c1.2-15.7,2.4-31.4,3.7-47.1c-4.1-1.1-8.3-1.8-12.5-2C161.2,0.5,154,1.3,147.6,2.7z"/>
		</g>
		<g>
			<path class="st5" d="M147.4,9c11.1-0.4,22.3-0.2,33.4,0.6c0.1-2.7,0.2-5.4,0.4-8.1c-11-0.1-22.1-0.1-33.1-0.2
				C147.6,3.9,147.3,6.5,147.4,9z"/>
		</g>
		<g>
			<path class="st6" d="M217.3,6.3c0.1,15.3,1.4,30.6,4,45.7c3.7-5.1,7.2-10.4,10.4-15.9c5.4,5.9,10.3,12.3,14.6,19
				c1.3-4.6,1.4-9.3,1.4-14c0.2-11.6,0.4-23.2,0.6-34.8c0-0.6,0-1.2-0.3-1.7c-0.7-1-2.1-0.9-3.3-0.7C235.5,5.2,226,5.3,217.3,6.3z"
				/>
		</g>
		<g>
			<path class="st7" d="M281.4,4.5c-0.4,15.3-0.2,30.6,0.5,45.8l11.9-16.9c3,5.3,6.6,10.4,10.6,15c1.9-14,3.7-28,5.6-42
				c0-0.4,0.1-0.9-0.2-1.2c-0.2-0.3-0.6-0.3-1-0.3c-6-0.5-11.9-1-17.8-1.5C287.9,3.2,284.6,2.9,281.4,4.5L281.4,4.5z"/>
		</g>
		<g>
			<path class="st8" d="M324.7,3.8c1.3,15,2,30,2.1,45.1c3.4-3.2,6.4-6.7,9.1-10.4c5.2,3.5,10.5,7,15.7,10.4
				c1.8-15.1,3.1-30.2,3.9-45.3c-2.7,0.1-5.3,0.6-7.9,0.7C340.3,4.6,332.8,1.7,324.7,3.8L324.7,3.8z"/>
		</g>
		<g>
			<path class="st9" d="M379.6,5.1c-0.4,14-0.4,28-0.1,42c3.2-4.8,7.2-9.2,11.7-12.9c4.7,4.2,9.4,8.4,14,12.6
				c1.5-9.5,2.7-19.1,3.5-28.7c0.3-4.2,0.6-8.5,0.1-12.7c-0.1-0.5-0.2-1.1-0.6-1.5c-0.3-0.3-0.8-0.3-1.2-0.3
				c-3.6-0.2-7.2-0.5-10.8-0.8c-5.9-0.4-11.9-0.8-17.6,0.8C379,4.1,379.3,4.6,379.6,5.1L379.6,5.1z"/>
		</g>
		<g>
			<path class="st10" d="M432.2,5.7c-0.6,14.8,0,29.7,1.7,44.5c3.3-5.2,7.2-10.1,11.6-14.5c3.3,6.1,8,11.5,13.7,15.5
				c3.8-14.9,5.2-30.4,4.3-45.8C453.2,3.7,442.7,3.3,432.2,5.7L432.2,5.7z"/>
		</g>
		<g>
			<path class="st11" d="M463.7,9.7c-10.8-1.1-21.8-1-32.6,0.3c-0.2-2.7-0.4-5.4-0.6-8c11.6,0.4,23.3,0.5,34.9,0.3
				C464.6,4.8,464.4,7.5,463.7,9.7L463.7,9.7z"/>
		</g>
		<g>
			<path class="st11" d="M247.4,9.6c-10.7-0.4-21.4-0.1-32,0.9c-0.6-2.5-1.1-5-1.7-7.5c12-0.4,24-0.8,36-1.1
				C248.8,3.9,248.2,6,247.4,9.6L247.4,9.6z"/>
		</g>
		<g>
			<path class="st2" d="M280.6,7.4L298,7.8c3.8,0.1,7.7,0.1,11.4,1.1c-0.2-1.5,0.1-3.1,0.8-4.4c-9.3-1.7-19-3.2-28.2-1.2
				c-0.3,0.1-0.6,0.1-0.8,0.3c-0.2,0.2-0.2,0.5-0.2,0.8C280.7,5.5,280.8,6.7,280.6,7.4z"/>
		</g>
		<g>
			<path class="st5" d="M330.2,10.8c8.7-0.9,17.5-0.9,26.1,0c-0.5-2.7-0.7-5.5-0.4-8.3C346,3.6,336,3.4,326.2,1.9
				C326.1,4.9,326.5,7.8,330.2,10.8L330.2,10.8z"/>
		</g>
		<g>
			<path class="st12" d="M112.8,7.5C102.4,7.6,92,8.2,81.6,9.2c-0.7-2.3-1.3-4.6-2-6.9c11.3-1,22.7-1.8,34.1-2.3
				C113.1,2.5,113.3,5.2,112.8,7.5z"/>
		</g>
		<g>
			<path class="st12" d="M407.3,10.3c-9.1-1.2-18.5-1.2-27.6,0.2c0-2.4-0.4-4.9-1-7.2c9.5-0.1,19.1,0,28.6,0.2
				c0.5,0,1.1,0.1,1.4,0.4c0.3,0.4,0.3,0.9,0.2,1.4C408.8,7.1,408.6,8.9,407.3,10.3L407.3,10.3z"/>
		</g>
	</g>
</g>
</svg>
